<svg version="1.1" id="Layer_1" xmlns="http://www.w3.org/2000/svg" xmlns:xlink="http://www.w3.org/1999/xlink" x="0px" y="0px"
	 width="100%" viewBox="0 0 500 500" enable-background="new 0 0 500 500" xml:space="preserve">
<path fill="#000000" opacity="1.000000" stroke="none" 
	d="
M339.000000,501.000000 
	C226.000031,501.000000 113.500053,501.000000 1.000060,501.000000 
	C1.000040,334.333405 1.000040,167.666794 1.000020,1.000150 
	C167.666565,1.000100 334.333130,1.000100 500.999756,1.000050 
	C500.999847,167.666519 500.999847,334.333038 500.999939,500.999786 
	C447.166656,501.000000 393.333344,501.000000 339.000000,501.000000 
M313.115845,165.889435 
	C313.115845,165.889435 313.214874,165.876663 313.025299,165.336960 
	C312.722015,165.117661 312.418732,164.898361 311.895905,164.330139 
	C311.895905,164.330139 311.567383,164.081116 311.468628,163.449799 
	C307.951935,160.468536 304.435242,157.487274 300.500763,154.031174 
	C299.968506,153.700806 299.436249,153.370438 298.627380,152.444992 
	C297.096039,150.950348 295.074738,149.714798 294.122375,147.913971 
	C290.863098,141.750961 287.979126,135.389465 284.816437,128.683090 
	C284.691376,128.413010 284.521118,128.175278 283.815796,127.630318 
	C283.637390,127.542839 283.459015,127.455368 283.348114,127.179726 
	C283.348114,127.179726 283.229980,127.018478 283.222351,126.268150 
	C283.086731,125.532005 282.951111,124.795853 283.165253,123.676651 
	C282.722839,123.146729 282.280457,122.616798 281.446259,121.997894 
	C281.446259,121.997894 281.049622,121.933762 280.997803,121.973053 
	C280.997803,121.973053 281.062744,121.971153 281.030670,121.458115 
	C280.948486,121.307747 280.866333,121.157387 280.795654,120.531700 
	C280.735901,120.216774 280.729767,119.900803 280.685791,118.997200 
	C280.492310,118.659920 280.298828,118.322639 279.671844,117.714073 
	C279.515839,117.645363 279.359833,117.576653 279.196014,117.232468 
	C279.196014,117.232468 279.039215,117.005844 279.006104,116.480675 
	C278.929230,116.323013 278.852325,116.165359 278.807648,115.494881 
	C278.808655,115.152924 278.809662,114.810974 278.731445,113.914062 
	C278.552856,113.589996 278.374237,113.265930 277.759674,112.748138 
	C277.759674,112.748138 277.294220,112.643539 277.201416,112.786514 
	C277.201416,112.786514 277.353790,112.862892 277.396362,112.022324 
	C277.267578,110.349800 277.138763,108.677277 277.557983,106.523979 
	C282.999359,105.012383 288.440704,103.500778 293.882080,101.989174 
	C293.826202,101.621056 293.770355,101.252937 293.714508,100.884819 
	C287.705170,101.994118 281.695831,103.103416 275.006439,104.290382 
	C273.327423,104.810303 271.648407,105.330215 269.517883,105.989952 
	C270.180695,108.506836 270.756927,110.694939 271.345367,113.591141 
	C271.482910,114.039795 271.620422,114.488449 271.616913,115.670799 
	C275.816895,126.638748 279.827362,137.685257 284.323242,148.530533 
	C285.824829,152.152802 285.263062,154.468536 282.980408,157.492218 
	C277.313721,164.998611 267.988373,166.512619 260.846008,171.558777 
	C259.917755,172.214615 255.938126,170.828369 255.699615,169.831238 
	C253.330429,159.926117 251.451294,149.903778 249.961441,140.529068 
	C257.072784,147.636520 263.996033,145.969894 267.044464,136.440369 
	C269.565674,128.558884 267.460052,121.267654 264.380188,113.510162 
	C261.068787,118.353882 257.098480,118.622177 252.307632,116.954018 
	C249.814636,116.085983 246.922379,116.364532 244.260071,116.129539 
	C243.689606,123.309799 243.168930,129.863602 242.648239,136.417389 
	C242.852051,136.468979 243.055862,136.520554 243.259674,136.572144 
	C243.950668,135.166992 244.641663,133.761856 245.332672,132.356720 
	C245.744308,132.311646 246.155960,132.266586 246.567612,132.221527 
	C246.984009,133.893524 247.400406,135.565536 247.160095,137.544632 
	C244.078537,139.006165 243.548508,141.442261 244.114639,144.598007 
	C245.375107,151.624191 246.533722,158.672577 247.540543,165.739441 
	C249.090607,176.619415 251.659531,186.952103 261.037537,194.093216 
	C264.039764,196.379349 266.969696,198.760422 270.191986,201.642197 
	C270.825317,202.411835 271.458618,203.181458 272.154663,204.614136 
	C272.484833,205.423141 272.815002,206.232147 273.010986,207.746078 
	C273.823975,213.155228 271.758514,217.727356 268.167877,221.719009 
	C267.140961,214.744064 264.392609,212.736542 256.500977,213.197098 
	C249.435883,213.609421 245.029694,217.495880 245.001511,223.529083 
	C244.947998,234.981110 245.103073,246.435516 244.908875,257.884491 
	C244.860809,260.719177 244.445755,263.898590 243.091248,266.292572 
	C239.438049,272.749176 241.114914,279.322815 242.425430,286.312012 
	C243.959229,283.228546 245.493011,280.145050 247.870056,276.921051 
	C251.281036,280.412872 248.449860,282.607635 245.883255,285.570435 
	C248.226181,286.504974 251.467239,287.672699 252.313248,286.718018 
	C254.801819,283.909790 256.340088,280.259399 259.049500,277.124817 
	C259.345734,277.658936 259.897339,278.191437 259.900757,278.727448 
	C259.982361,291.411896 260.015167,304.096741 260.014191,316.781494 
	C260.014130,317.579620 259.610474,318.369354 259.489288,319.177216 
	C258.687378,324.521454 257.493744,329.848694 257.224609,335.221375 
	C256.817871,343.341248 257.286743,351.503784 256.923035,359.627594 
	C256.767273,363.106171 255.453705,366.532898 254.213638,370.638153 
	C254.151199,373.390625 254.088760,376.143097 253.309723,379.041962 
	C248.513870,386.392548 241.586838,390.161255 232.297028,390.981476 
	C231.582703,391.322754 230.868378,391.664001 230.032333,392.450439 
	C230.032333,392.450439 229.964081,392.906921 229.216156,392.996063 
	C229.186172,394.624695 229.156204,396.253326 228.846420,398.519318 
	C229.458969,399.918030 229.679657,401.899139 230.749146,402.618713 
	C236.663254,406.597717 243.226761,406.078064 249.816147,404.732208 
	C257.327515,403.198059 264.560150,399.744446 272.585968,401.717560 
	C273.873749,402.034210 275.436798,401.231018 277.599670,400.935242 
	C279.055359,399.999084 280.511047,399.062897 282.581787,397.800537 
	C282.670380,393.696136 282.758972,389.591736 283.034668,384.577271 
	C283.029541,383.049225 283.024445,381.521179 283.264069,379.238495 
	C283.655273,376.188660 285.147522,372.734161 284.206512,370.174011 
	C282.300018,364.987061 283.818054,360.405090 285.101013,355.763672 
	C291.634064,332.128601 298.310699,308.532745 305.049133,284.955170 
	C306.750153,279.003326 308.862762,273.169098 311.023987,266.552979 
	C313.018768,270.472015 315.003662,273.374603 316.037231,276.583588 
	C319.568604,287.547455 321.936646,298.966278 326.363739,309.534912 
	C329.645172,317.368530 330.205750,325.494171 331.363373,333.449677 
	C332.081482,338.384705 331.568817,343.433990 334.175079,348.774017 
	C334.449921,350.511841 334.724731,352.249695 335.052338,354.819580 
	C336.032990,358.432037 337.108582,362.022095 337.966888,365.663391 
	C338.784363,369.131683 339.583771,372.628143 340.012085,376.158173 
	C340.530548,380.431122 340.650787,384.752380 340.912079,389.610870 
	C341.157684,390.089417 341.403290,390.567932 341.786957,391.138580 
	C341.786957,391.138580 341.863831,391.285645 341.804382,391.995178 
	C341.876312,392.701813 341.948212,393.408478 341.873230,394.804993 
	C341.987671,396.533356 342.102142,398.261719 342.184052,400.623260 
	C343.001404,402.067047 343.798035,403.523102 344.642151,404.951080 
	C345.449860,406.317352 346.306915,407.654480 347.007050,409.752014 
	C347.063873,410.506378 347.120697,411.260773 347.105652,412.530334 
	C347.386902,412.713684 347.668182,412.897064 347.966125,412.997528 
	C347.966125,412.997528 347.929443,413.075653 347.999756,413.716400 
	C348.958160,414.777557 349.916565,415.838715 351.517517,417.100769 
	C352.362854,417.395844 353.208221,417.690918 354.748779,418.134247 
	C361.141083,417.760529 367.533356,417.386841 373.945099,416.476379 
	C373.949005,416.297394 373.952911,416.118378 374.608215,415.526886 
	C374.611908,410.487030 374.029572,405.641968 370.026886,401.968018 
	C370.026886,401.968018 370.104614,401.962738 369.939789,401.445251 
	C369.643951,401.253632 369.348114,401.062042 368.990509,400.423218 
	C368.990509,400.423218 368.854950,399.992554 368.929993,399.460358 
	C368.636993,399.279114 368.343994,399.097870 368.020813,398.978455 
	C368.020813,398.978455 368.087952,398.963257 367.930084,398.468353 
	C367.641327,398.307007 367.352570,398.145630 366.947968,397.206970 
	C366.895996,396.163025 366.844025,395.119049 366.961548,393.413391 
	C366.976318,392.961456 366.991089,392.509491 367.401062,391.453979 
	C367.616028,390.302124 367.830994,389.150299 368.231384,387.264526 
	C369.249054,383.138794 370.619385,379.088684 366.931885,375.311981 
	C366.126801,374.487457 366.485870,372.308502 366.665039,370.795563 
	C366.890900,368.888306 367.935852,367.001465 367.842072,365.145508 
	C367.266449,353.758179 366.693329,342.361176 365.637207,331.012268 
	C365.201599,326.330994 363.509033,321.774353 362.495453,317.137573 
	C360.671600,308.793793 357.275665,300.399353 359.261688,291.854980 
	C362.394257,278.377747 360.733459,265.082336 358.552765,251.939667 
	C356.032013,236.747635 354.479004,221.411392 349.423004,206.538269 
	C346.567383,198.137787 343.853271,189.754974 339.824951,181.121414 
	C339.520172,180.314896 339.215393,179.508392 338.900696,177.995956 
	C344.077209,169.499756 351.311157,161.504578 345.824097,150.278702 
	C328.859192,157.740524 324.821503,160.523178 317.840637,168.799393 
	C316.870483,168.320297 315.900330,167.841202 314.686066,167.054626 
	C314.686066,167.054626 314.339996,166.869324 314.072388,166.366943 
	C313.753296,166.174500 313.434174,165.982040 313.115845,165.889435 
M244.336212,88.391479 
	C244.917755,88.624962 245.499313,88.858444 246.080856,89.091927 
	C246.142426,88.850166 246.203995,88.608406 246.265549,88.366653 
	C245.510361,88.244537 244.755188,88.122421 243.815231,87.340927 
	C242.075806,86.534950 240.336395,85.728966 238.596970,84.922989 
	C238.439987,85.446472 238.283005,85.969963 238.126022,86.493454 
	C240.084015,86.995575 242.042007,87.497688 244.336212,88.391479 
M226.217957,124.699272 
	C229.126434,120.251396 232.034927,115.803520 234.691788,111.740463 
	C236.733170,113.834328 238.688034,115.839455 240.642899,117.844582 
	C241.076355,117.550911 241.509811,117.257240 241.943268,116.963562 
	C241.943268,113.249634 242.229843,109.501892 241.797760,105.838928 
	C241.632294,104.436279 239.824631,103.227356 238.765305,101.930153 
	C237.835632,103.228973 236.290756,104.447731 236.109085,105.843887 
	C235.769257,108.455513 235.280777,109.510132 232.200729,110.208138 
	C226.874191,111.415237 222.332047,111.320816 217.762360,106.346359 
	C216.158768,110.570885 213.750900,113.975075 213.941666,117.226822 
	C214.137863,120.571289 216.303970,124.276382 218.652145,126.883179 
	C220.955917,129.440689 223.846924,127.901932 226.217957,124.699272 
M139.714355,393.011841 
	C138.198151,393.094177 136.681946,393.176483 135.165741,393.258789 
	C135.188599,393.625641 135.211472,393.992462 135.234329,394.359283 
	C139.086182,394.359283 142.938019,394.359283 146.789856,394.359283 
	C146.788452,393.909912 146.787048,393.460541 146.785645,393.011169 
	C144.713379,393.011169 142.641113,393.011169 139.714355,393.011841 
M254.130722,95.523636 
	C255.086044,95.672943 256.041382,95.822243 256.996704,95.971542 
	C257.048676,95.654106 257.100616,95.336670 257.152557,95.019226 
	C255.695343,94.751923 254.238113,94.484612 252.780899,94.217300 
	C253.062805,94.585106 253.344696,94.952911 254.130722,95.523636 
M266.470184,108.660645 
	C266.532990,108.649025 266.595764,108.637405 266.470184,108.660645 
M250.443115,92.500755 
	C250.443115,92.500755 250.506683,92.470711 250.443115,92.500755 
M248.546173,91.498734 
	C248.546173,91.498734 248.492599,91.521698 248.546173,91.498734 
z"/>
<path fill="#034AA9" opacity="1.000000" stroke="none" 
	d="
M340.112213,181.707062 
	C343.853271,189.754974 346.567383,198.137787 349.423004,206.538269 
	C354.479004,221.411392 356.032013,236.747635 358.552765,251.939667 
	C360.733459,265.082336 362.394257,278.377747 359.261688,291.854980 
	C357.275665,300.399353 360.671600,308.793793 362.495453,317.137573 
	C363.509033,321.774353 365.201599,326.330994 365.637207,331.012268 
	C366.693329,342.361176 367.266449,353.758179 367.842072,365.145508 
	C367.935852,367.001465 366.890900,368.888306 366.665039,370.795563 
	C366.485870,372.308502 366.126801,374.487457 366.931885,375.311981 
	C370.619385,379.088684 369.249054,383.138794 367.721619,387.826111 
	C361.352661,388.394440 355.472351,388.112457 349.643707,388.537964 
	C346.997681,388.731110 344.453949,390.326385 341.863831,391.285645 
	C341.863831,391.285645 341.786957,391.138580 341.624451,390.844727 
	C341.289124,390.051514 341.116272,389.552124 340.943359,389.052734 
	C340.650787,384.752380 340.530548,380.431122 340.012085,376.158173 
	C339.583771,372.628143 338.784363,369.131683 337.966888,365.663391 
	C337.108582,362.022095 336.032990,358.432037 335.273621,354.331818 
	C337.747284,356.249084 339.999725,358.654083 342.252136,361.059082 
	C342.709167,360.651459 343.166229,360.243835 343.623260,359.836212 
	C340.497040,355.884399 337.370819,351.932587 334.244598,347.980774 
	C331.568817,343.433990 332.081482,338.384705 331.363373,333.449677 
	C330.205750,325.494171 329.645172,317.368530 326.363739,309.534912 
	C321.936646,298.966278 319.568604,287.547455 316.037231,276.583588 
	C315.003662,273.374603 313.018768,270.472015 311.023987,266.552979 
	C308.862762,273.169098 306.750153,279.003326 305.049133,284.955170 
	C298.310699,308.532745 291.634064,332.128601 285.101013,355.763672 
	C283.818054,360.405090 282.300018,364.987061 284.206512,370.174011 
	C285.147522,372.734161 283.655273,376.188660 283.013367,379.977844 
	C281.665924,381.752014 280.563629,383.675812 279.473358,383.669006 
	C274.541687,383.638275 269.486359,383.620209 264.717285,382.535095 
	C259.231415,381.286865 254.563690,374.744507 254.666214,369.983185 
	C255.453705,366.532898 256.767273,363.106171 256.923035,359.627594 
	C257.286743,351.503784 256.817871,343.341248 257.224609,335.221375 
	C257.493744,329.848694 258.687378,324.521454 259.489288,319.177216 
	C259.610474,318.369354 260.014130,317.579620 260.014191,316.781494 
	C260.015167,304.096741 259.982361,291.411896 259.900757,278.727448 
	C259.897339,278.191437 259.345734,277.658936 258.514160,276.734955 
	C257.989380,275.180756 257.999908,274.016449 258.229431,272.582153 
	C259.823669,270.211151 261.013428,267.956665 262.604309,266.034119 
	C272.353058,254.253082 282.192688,242.547241 292.328247,231.038422 
	C295.971222,233.531082 295.629425,231.031052 295.629852,228.978363 
	C295.630310,226.731247 295.629944,224.484131 295.629944,223.106537 
	C298.135590,223.980606 300.156189,224.685486 302.267761,225.418213 
	C302.358734,225.446091 302.616272,225.187729 302.752502,224.967514 
	C303.001862,224.616913 303.115021,224.486542 303.516388,224.412109 
	C307.856110,220.094223 313.646881,216.669876 313.633148,209.846573 
	C313.624084,205.342377 315.609833,202.344437 318.639008,199.593674 
	C324.635834,194.148056 330.598694,188.664093 336.662964,183.294678 
	C337.570129,182.491486 338.950653,182.222946 340.112213,181.707062 
M302.016510,251.575943 
	C301.822815,251.473877 301.629120,251.371811 301.435425,251.269760 
	C301.592407,251.533981 301.749390,251.798203 301.961029,252.780457 
	C303.120148,254.800812 304.279266,256.821167 305.438385,258.841553 
	C305.969208,258.424500 306.500000,258.007446 307.030823,257.590363 
	C305.389496,255.691452 303.748199,253.792542 302.016510,251.575943 
M334.653076,204.798752 
	C332.727264,204.079056 330.801422,203.359375 328.875610,202.639694 
	C335.247803,209.198288 341.592682,212.290497 346.263306,211.683334 
	C342.532623,209.451538 338.916443,207.288223 334.653076,204.798752 
M362.918671,378.181030 
	C358.029877,376.056244 353.141052,373.931458 348.252258,371.806671 
	C348.000732,372.436493 347.749237,373.066315 347.497711,373.696167 
	C352.635620,375.890442 357.773529,378.084747 362.911499,380.279022 
	C363.057129,379.738098 363.202759,379.197144 362.918671,378.181030 
M308.560394,260.455566 
	C308.766937,261.681274 308.973450,262.906982 309.179993,264.132721 
	C309.768799,263.950043 310.357574,263.767395 310.946381,263.584717 
	C310.327057,262.626953 309.707703,261.669189 308.560394,260.455566 
M344.508270,362.445557 
	C344.508270,362.445557 344.541534,362.514648 344.508270,362.445557 
z"/>
<path fill="#0349A8" opacity="1.000000" stroke="none" 
	d="
M311.567383,164.081116 
	C311.567383,164.081116 311.895905,164.330139 312.123718,164.758423 
	C312.639343,165.416687 312.927094,165.646683 313.214874,165.876663 
	C313.214874,165.876663 313.115845,165.889435 313.258270,166.083115 
	C313.713806,166.474304 314.026886,166.671814 314.339996,166.869324 
	C314.339996,166.869324 314.686066,167.054626 314.878662,167.517807 
	C314.374878,170.977798 313.678558,173.974594 312.992737,176.984863 
	C313.003235,176.998337 312.972656,176.984924 312.642700,177.059067 
	C311.530731,178.358704 310.748749,179.584198 309.973328,180.890228 
	C309.979889,180.970795 309.818665,180.982544 309.651184,181.119263 
	C309.278137,181.463684 309.118683,181.702225 309.011292,181.988419 
	C309.017273,182.005234 308.981598,182.005615 308.643463,182.076691 
	C307.194763,183.741547 306.084229,185.335327 304.985962,186.957550 
	C304.998291,186.985962 304.936493,186.981537 304.598328,187.056976 
	C303.178589,188.766754 302.097046,190.401093 301.004364,192.018616 
	C300.993225,192.001816 301.032410,192.010864 300.708984,192.107269 
	C299.930603,193.155060 299.475677,194.106445 299.006470,195.031769 
	C298.992188,195.005707 299.051025,194.997314 298.842590,195.172119 
	C298.469727,195.668427 298.305359,195.989944 298.149658,196.212708 
	C298.158356,196.113953 298.355072,196.138702 298.008698,196.263565 
	C296.833984,198.085129 296.005615,199.781845 295.164825,201.736420 
	C294.857697,202.396957 294.563019,202.799637 293.953552,203.200211 
	C293.072876,203.462555 292.506989,203.727020 291.626831,203.994385 
	C290.893433,204.000366 290.474335,204.003448 289.730530,203.785309 
	C287.494202,203.570694 285.581787,203.542679 283.671295,203.591171 
	C279.810974,203.689133 275.951660,203.828690 272.091949,203.951096 
	C271.458618,203.181458 270.825317,202.411835 270.266418,201.074982 
	C272.597351,199.371017 274.853912,198.234283 277.110474,197.097549 
	C275.403778,196.265320 273.863098,196.694183 272.381622,196.543045 
	C269.832916,196.283005 266.435028,196.539551 264.947968,195.038940 
	C258.696106,188.730011 251.822113,182.716782 250.440903,173.019409 
	C249.248962,164.650879 247.526611,156.358795 246.141998,148.015762 
	C245.938858,146.791763 246.308151,145.472733 246.517838,142.912491 
	C249.258377,153.021744 251.616592,161.603455 253.902130,170.204483 
	C254.936295,174.096283 257.679749,174.426437 260.917999,173.722626 
	C264.602722,172.921783 268.264984,172.017456 272.056976,171.130051 
	C271.814545,170.596207 271.185425,169.210999 270.362091,167.398163 
	C276.123871,168.114594 278.787903,164.279053 281.916077,161.175934 
	C288.058014,155.083145 288.455597,152.639694 284.634949,144.918137 
	C282.954132,141.521164 281.350311,138.079666 279.871307,134.590637 
	C277.105286,128.065552 274.455872,121.491058 271.757935,114.937111 
	C271.620422,114.488449 271.482910,114.039795 271.500305,112.914124 
	C272.013092,109.514420 271.976868,106.461937 276.059814,106.934937 
	C276.002228,106.965553 276.103424,106.882698 276.066467,107.291794 
	C276.470978,109.421547 276.912384,111.142220 277.353790,112.862892 
	C277.353790,112.862892 277.201416,112.786514 277.270508,112.975403 
	C277.523682,113.451424 277.707825,113.738548 278.112488,114.155418 
	C278.492249,114.346451 278.651428,114.407730 278.810669,114.469017 
	C278.809662,114.810974 278.808655,115.152924 278.716858,115.884476 
	C278.589020,116.611740 278.726746,116.855667 279.039215,117.005844 
	C279.039215,117.005844 279.196014,117.232468 279.230225,117.655869 
	C279.444702,118.409447 279.624908,118.739632 280.037506,119.218491 
	C280.439026,119.439377 280.608154,119.511581 280.777283,119.583786 
	C280.729767,119.900803 280.735901,120.216774 280.716858,120.900620 
	C280.605194,121.604210 280.746735,121.838081 281.062744,121.971153 
	C281.062744,121.971153 280.997803,121.973053 281.011047,122.316864 
	C281.759521,124.113274 282.494751,125.565872 283.229980,127.018478 
	C283.229980,127.018478 283.348114,127.179726 283.345306,127.584961 
	C283.513489,128.363937 283.684509,128.737686 283.894714,129.487152 
	C286.902283,136.301910 289.615082,142.879990 292.996185,149.094406 
	C293.998138,150.935913 296.882324,151.753357 298.903992,153.040070 
	C299.436249,153.370438 299.968506,153.700806 300.813904,154.560547 
	C304.607147,158.087006 308.087280,161.084061 311.567383,164.081116 
z"/>
<path fill="#E69C82" opacity="1.000000" stroke="none" 
	d="
M294.268341,203.202316 
	C294.563019,202.799637 294.857697,202.396957 295.441406,201.527618 
	C296.605316,199.420227 297.480194,197.779465 298.355072,196.138702 
	C298.355072,196.138702 298.158356,196.113953 298.416077,196.091293 
	C298.799561,195.711533 298.925293,195.354416 299.051025,194.997314 
	C299.051025,194.997314 298.992188,195.005707 299.265106,194.854584 
	C300.036163,193.805923 300.534271,192.908386 301.032410,192.010864 
	C301.032410,192.010864 300.993225,192.001816 301.293671,191.867920 
	C302.708252,190.149872 303.822388,188.565704 304.936493,186.981537 
	C304.936493,186.981537 304.998291,186.985962 305.270813,186.807465 
	C306.689423,185.087830 307.835510,183.546722 308.981598,182.005615 
	C308.981598,182.005615 309.017273,182.005234 309.221771,181.895508 
	C309.688660,181.582336 309.819458,181.314590 309.818665,180.982544 
	C309.818665,180.982544 309.979889,180.970795 310.249023,180.752625 
	C311.336365,179.351288 312.154510,178.168106 312.972656,176.984924 
	C312.972656,176.984924 313.003235,176.998337 313.287109,176.829529 
	C315.174683,174.154602 316.778381,171.648468 318.382050,169.142334 
	C324.821503,160.523178 328.859192,157.740524 345.824097,150.278702 
	C351.311157,161.504578 344.077209,169.499756 338.570740,178.475800 
	C337.183472,179.693039 336.024109,180.319733 335.085175,181.185440 
	C328.124023,187.603745 321.530518,194.480011 314.121613,200.325287 
	C311.011444,202.779022 309.719482,204.125122 310.746399,208.232407 
	C311.999207,213.243271 309.875916,215.842529 306.868774,216.207809 
	C305.497131,219.277832 304.362640,221.817001 303.228149,224.356171 
	C303.115021,224.486542 303.001862,224.616913 302.663269,224.961700 
	C302.437805,225.176117 302.176788,225.390350 302.176788,225.390350 
	C300.156189,224.685486 298.135590,223.980606 295.629944,223.106537 
	C295.629944,224.484131 295.630310,226.731247 295.629852,228.978363 
	C295.629425,231.031052 295.971222,233.531082 292.341339,230.797699 
	C291.623016,228.229507 291.217804,226.124146 290.838623,223.586945 
	C290.793060,221.145798 290.721436,219.136490 290.783325,216.701630 
	C292.033997,211.918152 293.151154,207.560226 294.268341,203.202316 
z"/>
<path fill="#E59B81" opacity="1.000000" stroke="none" 
	d="
M247.026810,277.061584 
	C245.493011,280.145050 243.959229,283.228546 242.425430,286.312012 
	C241.114914,279.322815 239.438049,272.749176 243.091248,266.292572 
	C244.445755,263.898590 244.860809,260.719177 244.908875,257.884491 
	C245.103073,246.435516 244.947998,234.981110 245.001511,223.529083 
	C245.029694,217.495880 249.435883,213.609421 256.500977,213.197098 
	C264.392609,212.736542 267.140961,214.744064 268.416016,222.273041 
	C267.790131,228.201187 266.959442,233.582809 266.030273,238.947357 
	C265.044434,244.638855 263.965057,250.314148 262.962006,255.995483 
	C262.997498,255.994461 262.999878,255.923737 262.850708,255.872589 
	C262.701569,255.821442 262.487244,256.041687 262.487244,256.041687 
	C262.487244,256.041687 262.608154,256.322723 262.298035,256.589722 
	C259.568390,260.569641 257.148926,264.282593 254.400970,268.077057 
	C251.723938,271.126251 249.375381,274.093903 247.026810,277.061584 
z"/>
<path fill="#0B4BA4" opacity="1.000000" stroke="none" 
	d="
M262.926514,255.996506 
	C263.965057,250.314148 265.044434,244.638855 266.030273,238.947357 
	C266.959442,233.582809 267.790131,228.201187 268.757202,222.440735 
	C271.758514,217.727356 273.823975,213.155228 273.504700,207.381195 
	C279.350708,206.013046 284.703003,205.009796 290.055267,204.006531 
	C290.474335,204.003448 290.893433,204.000366 291.566772,204.368439 
	C291.246643,206.471970 290.203156,208.200699 290.189636,209.937424 
	C290.155243,214.368454 287.691986,215.209549 284.006195,214.961914 
	C281.852600,214.817230 279.681335,214.935577 277.518005,214.935577 
	C277.524963,215.666122 277.531921,216.396652 277.538879,217.127197 
	C281.909210,217.127197 286.279510,217.127197 290.649811,217.127197 
	C290.721436,219.136490 290.793060,221.145798 290.550354,223.741440 
	C283.380951,232.797516 276.597198,241.326645 269.624817,249.698715 
	C267.678101,252.036224 265.174591,253.909988 262.926514,255.996506 
z"/>
<path fill="#E59B81" opacity="1.000000" stroke="none" 
	d="
M247.816803,137.237549 
	C247.400406,135.565536 246.984009,133.893524 246.567612,132.221527 
	C246.155960,132.266586 245.744308,132.311646 245.332672,132.356720 
	C244.641663,133.761856 243.950668,135.166992 243.259674,136.572144 
	C243.055862,136.520554 242.852051,136.468979 242.648239,136.417389 
	C243.168930,129.863602 243.689606,123.309799 244.260071,116.129539 
	C246.922379,116.364532 249.814636,116.085983 252.307632,116.954018 
	C257.098480,118.622177 261.068787,118.353882 264.380188,113.510162 
	C267.460052,121.267654 269.565674,128.558884 267.044464,136.440369 
	C263.996033,145.969894 257.072784,147.636520 249.674500,140.057251 
	C248.863983,138.802795 248.340393,138.020172 247.816803,137.237549 
z"/>
<path fill="#E69C82" opacity="1.000000" stroke="none" 
	d="
M232.993759,391.129883 
	C241.586838,390.161255 248.513870,386.392548 253.950531,379.157043 
	C258.103851,381.076874 261.616333,382.881592 265.249084,384.887787 
	C265.908173,385.063690 266.447021,385.038116 267.446289,384.968140 
	C271.601257,385.084198 275.295746,385.244659 279.059937,385.694092 
	C278.987762,386.998169 279.208893,388.354187 278.635834,388.964478 
	C276.923859,390.787811 274.900696,392.318909 272.600586,393.858154 
	C266.831696,394.188538 261.461273,394.624878 255.694687,395.075104 
	C247.963364,396.460846 240.607697,398.423340 233.383820,393.716003 
	C235.062485,399.022369 238.940292,399.634277 243.159317,400.089722 
	C245.194336,400.309418 247.122559,401.518402 248.892883,402.490784 
	C248.119522,402.782104 247.552429,402.862000 246.759399,402.768524 
	C245.686035,402.747406 244.838608,402.899658 243.618286,403.125977 
	C242.493698,403.119537 241.742020,403.039032 240.705933,402.767822 
	C239.754395,402.429871 239.087250,402.282623 238.320602,402.190491 
	C238.221115,402.245636 238.035034,402.114777 237.769150,401.896240 
	C236.845154,401.501556 236.187057,401.325378 235.408508,401.205994 
	C235.288071,401.262817 235.038528,401.169800 234.812256,400.947083 
	C234.000366,400.508942 233.414764,400.293518 232.517151,400.041443 
	C231.454254,399.366791 230.703354,398.728821 229.963013,397.659119 
	C229.970413,395.787231 229.967255,394.347076 229.964081,392.906921 
	C229.964081,392.906921 230.032333,392.450439 230.397308,392.209229 
	C231.506104,391.688629 232.249924,391.409271 232.993759,391.129883 
z"/>
<path fill="#0C4089" opacity="1.000000" stroke="none" 
	d="
M247.488434,137.391083 
	C248.340393,138.020172 248.863983,138.802795 249.410614,139.750000 
	C251.451294,149.903778 253.330429,159.926117 255.699615,169.831238 
	C255.938126,170.828369 259.917755,172.214615 260.846008,171.558777 
	C267.988373,166.512619 277.313721,164.998611 282.980408,157.492218 
	C285.263062,154.468536 285.824829,152.152802 284.323242,148.530533 
	C279.827362,137.685257 275.816895,126.638748 271.687439,115.303955 
	C274.455872,121.491058 277.105286,128.065552 279.871307,134.590637 
	C281.350311,138.079666 282.954132,141.521164 284.634949,144.918137 
	C288.455597,152.639694 288.058014,155.083145 281.916077,161.175934 
	C278.787903,164.279053 276.123871,168.114594 270.362091,167.398163 
	C271.185425,169.210999 271.814545,170.596207 272.056976,171.130051 
	C268.264984,172.017456 264.602722,172.921783 260.917999,173.722626 
	C257.679749,174.426437 254.936295,174.096283 253.902130,170.204483 
	C251.616592,161.603455 249.258377,153.021744 246.517838,142.912491 
	C246.308151,145.472733 245.938858,146.791763 246.141998,148.015762 
	C247.526611,156.358795 249.248962,164.650879 250.440903,173.019409 
	C251.822113,182.716782 258.696106,188.730011 264.947968,195.038940 
	C266.435028,196.539551 269.832916,196.283005 272.381622,196.543045 
	C273.863098,196.694183 275.403778,196.265320 277.110474,197.097549 
	C274.853912,198.234283 272.597351,199.371017 270.136780,200.802902 
	C266.969696,198.760422 264.039764,196.379349 261.037537,194.093216 
	C251.659531,186.952103 249.090607,176.619415 247.540543,165.739441 
	C246.533722,158.672577 245.375107,151.624191 244.114639,144.598007 
	C243.548508,141.442261 244.078537,139.006165 247.488434,137.391083 
z"/>
<path fill="#E59B81" opacity="1.000000" stroke="none" 
	d="
M342.216614,399.990082 
	C342.102142,398.261719 341.987671,396.533356 342.136597,394.128967 
	C346.889740,392.181152 351.379547,390.909332 356.044495,389.957794 
	C358.853729,391.436279 361.487823,392.594513 364.242279,393.805695 
	C361.867340,395.319305 359.847687,396.606476 357.300720,398.229767 
	C363.477173,400.496124 364.544800,399.926605 366.792084,394.075104 
	C366.844025,395.119049 366.895996,396.163025 367.145172,397.787659 
	C367.558411,398.607422 367.806946,398.805725 368.087952,398.963257 
	C368.087952,398.963257 368.020813,398.978455 368.143311,399.146057 
	C368.431610,399.566498 368.627991,399.792786 368.854950,399.992554 
	C368.854950,399.992554 368.990509,400.423218 369.163940,400.857819 
	C369.593109,401.515869 369.848846,401.739288 370.104614,401.962738 
	C370.104614,401.962738 370.026886,401.968018 370.083405,402.279114 
	C370.712860,405.178284 369.952545,406.920166 367.062256,407.011414 
	C364.104370,407.104828 361.117493,406.798401 358.188934,407.103912 
	C356.532196,407.276733 354.967102,408.328369 353.360748,408.984131 
	C353.616486,409.825470 353.872223,410.666840 354.127960,411.508209 
	C358.545837,410.774017 363.078796,410.431458 367.344086,409.178101 
	C370.581818,408.226654 371.965271,408.771820 372.459076,412.074371 
	C370.825134,412.859467 369.376160,413.555725 367.694275,414.293274 
	C367.461334,414.334564 367.023315,414.155670 366.712982,413.916382 
	C363.601074,413.985596 360.799469,414.294098 357.669586,414.719910 
	C356.881134,414.821777 356.420990,414.806366 355.639587,414.613953 
	C352.855347,413.983185 350.392395,413.529419 347.929443,413.075623 
	C347.929443,413.075653 347.966125,412.997528 347.856750,412.842072 
	C347.590179,412.435028 347.400238,412.211182 347.177551,412.015137 
	C347.120697,411.260773 347.063873,410.506378 347.401123,409.284058 
	C348.246704,407.346039 349.500610,405.015991 349.008698,404.556976 
	C347.039062,402.719147 344.527649,401.461975 342.216614,399.990082 
z"/>
<path fill="#DF9980" opacity="1.000000" stroke="none" 
	d="
M225.982529,124.959381 
	C223.846924,127.901932 220.955917,129.440689 218.652145,126.883179 
	C216.303970,124.276382 214.137863,120.571289 213.941666,117.226822 
	C213.750900,113.975075 216.158768,110.570885 217.762360,106.346359 
	C222.332047,111.320816 226.874191,111.415237 232.200729,110.208138 
	C235.280777,109.510132 235.769257,108.455513 236.109085,105.843887 
	C236.290756,104.447731 237.835632,103.228973 238.765305,101.930153 
	C239.824631,103.227356 241.632294,104.436279 241.797760,105.838928 
	C242.229843,109.501892 241.943268,113.249634 241.943268,116.963562 
	C241.509811,117.257240 241.076355,117.550911 240.642899,117.844582 
	C238.688034,115.839455 236.733170,113.834328 234.691788,111.740463 
	C232.034927,115.803520 229.126434,120.251396 225.982529,124.959381 
z"/>
<path fill="#DF9980" opacity="1.000000" stroke="none" 
	d="
M249.099152,402.279419 
	C247.122559,401.518402 245.194336,400.309418 243.159317,400.089722 
	C238.940292,399.634277 235.062485,399.022369 233.383820,393.716003 
	C240.607697,398.423340 247.963364,396.460846 255.774200,395.400208 
	C262.309143,395.374359 268.368408,395.037354 275.425385,394.644836 
	C273.934082,394.226471 273.466553,394.095306 272.999054,393.964142 
	C274.900696,392.318909 276.923859,390.787811 278.635834,388.964478 
	C279.208893,388.354187 278.987762,386.998169 279.438873,385.589783 
	C280.781250,385.293518 281.814392,385.390442 282.847565,385.487366 
	C282.758972,389.591736 282.670380,393.696136 281.853210,397.905334 
	C274.496490,398.429749 267.868317,398.849335 260.863647,399.307953 
	C258.003754,400.007050 255.520340,400.667084 252.980164,401.068878 
	C252.603287,400.509949 252.283203,400.209290 251.963104,399.908630 
	C252.192322,400.437317 252.421555,400.965973 252.330383,401.678040 
	C251.039703,402.000763 250.069427,402.140076 249.099152,402.279419 
z"/>
<path fill="#191627" opacity="1.000000" stroke="none" 
	d="
M303.516388,224.412109 
	C304.362640,221.817001 305.497131,219.277832 306.868774,216.207809 
	C309.875916,215.842529 311.999207,213.243271 310.746399,208.232407 
	C309.719482,204.125122 311.011444,202.779022 314.121613,200.325287 
	C321.530518,194.480011 328.124023,187.603745 335.085175,181.185440 
	C336.024109,180.319733 337.183472,179.693039 338.575684,178.828766 
	C339.215393,179.508392 339.520172,180.314896 339.968567,181.414246 
	C338.950653,182.222946 337.570129,182.491486 336.662964,183.294678 
	C330.598694,188.664093 324.635834,194.148056 318.639008,199.593674 
	C315.609833,202.344437 313.624084,205.342377 313.633148,209.846573 
	C313.646881,216.669876 307.856110,220.094223 303.516388,224.412109 
z"/>
<path fill="#DF9980" opacity="1.000000" stroke="none" 
	d="
M247.448425,276.991333 
	C249.375381,274.093903 251.723938,271.126251 254.438171,268.445435 
	C255.872696,270.105591 256.941559,271.478851 258.010406,272.852112 
	C257.999908,274.016449 257.989380,275.180756 258.114624,276.641907 
	C256.340088,280.259399 254.801819,283.909790 252.313248,286.718018 
	C251.467239,287.672699 248.226181,286.504974 245.883255,285.570435 
	C248.449860,282.607635 251.281036,280.412872 247.448425,276.991333 
z"/>
<path fill="#544037" opacity="1.000000" stroke="none" 
	d="
M253.036942,401.327148 
	C255.520340,400.667084 258.003754,400.007050 261.211975,399.453613 
	C266.915436,400.021973 271.894012,400.483734 276.872620,400.945496 
	C275.436798,401.231018 273.873749,402.034210 272.585968,401.717560 
	C264.560150,399.744446 257.327515,403.198059 249.816147,404.732208 
	C243.226761,406.078064 236.663254,406.597717 230.749146,402.618713 
	C229.679657,401.899139 229.458969,399.918030 229.193161,398.251556 
	C229.539902,397.983795 229.952438,398.090851 229.952454,398.090851 
	C230.703354,398.728821 231.454254,399.366791 232.636261,400.271973 
	C233.724426,400.749390 234.381485,400.959595 235.038528,401.169800 
	C235.038528,401.169800 235.288071,401.262817 235.647797,401.467102 
	C236.683380,401.819183 237.359207,401.966980 238.035034,402.114777 
	C238.035034,402.114777 238.221115,402.245636 238.586731,402.422821 
	C239.631683,402.719513 240.311005,402.838989 240.990341,402.958496 
	C241.742020,403.039032 242.493698,403.119537 243.992371,403.177795 
	C245.488022,403.084320 246.236679,403.013123 246.985336,402.941895 
	C247.552429,402.862000 248.119522,402.782104 248.892883,402.490784 
	C250.069427,402.140076 251.039703,402.000763 252.445343,401.679932 
	C252.880722,401.498383 253.036942,401.327148 253.036942,401.327148 
z"/>
<path fill="#DF9980" opacity="1.000000" stroke="none" 
	d="
M367.927185,414.251953 
	C369.376160,413.555725 370.825134,412.859467 372.459076,412.074371 
	C371.965271,408.771820 370.581818,408.226654 367.344086,409.178101 
	C363.078796,410.431458 358.545837,410.774017 354.127960,411.508209 
	C353.872223,410.666840 353.616486,409.825470 353.360748,408.984131 
	C354.967102,408.328369 356.532196,407.276733 358.188934,407.103912 
	C361.117493,406.798401 364.104370,407.104828 367.062256,407.011414 
	C369.952545,406.920166 370.712860,405.178284 370.111877,402.252502 
	C374.029572,405.641968 374.611908,410.487030 373.999695,415.525208 
	C371.569855,415.099670 369.748535,414.675812 367.927185,414.251953 
z"/>
<path fill="#191627" opacity="1.000000" stroke="none" 
	d="
M282.941101,385.032318 
	C281.814392,385.390442 280.781250,385.293518 279.369141,385.300873 
	C275.295746,385.244659 271.601257,385.084198 267.159851,384.814667 
	C265.984894,384.699188 265.556854,384.692780 265.128815,384.686340 
	C261.616333,382.881592 258.103851,381.076874 254.308838,379.083862 
	C254.088760,376.143097 254.151199,373.390625 254.439926,370.310669 
	C254.563690,374.744507 259.231415,381.286865 264.717285,382.535095 
	C269.486359,383.620209 274.541687,383.638275 279.473358,383.669006 
	C280.563629,383.675812 281.665924,381.752014 282.890991,380.355164 
	C283.024445,381.521179 283.029541,383.049225 282.941101,385.032318 
z"/>
<path fill="#191627" opacity="1.000000" stroke="none" 
	d="
M355.869324,389.637543 
	C351.379547,390.909332 346.889740,392.181152 342.210022,393.784058 
	C341.948212,393.408478 341.876312,392.701813 341.834106,391.640411 
	C344.453949,390.326385 346.997681,388.731110 349.643707,388.537964 
	C355.472351,388.112457 361.352661,388.394440 367.628906,388.193085 
	C367.830994,389.150299 367.616028,390.302124 367.005432,391.419067 
	C363.029633,390.801941 359.449493,390.219757 355.869324,389.637543 
z"/>
<path fill="#DF9980" opacity="1.000000" stroke="none" 
	d="
M356.044495,389.957794 
	C359.449493,390.219757 363.029633,390.801941 366.807831,391.720825 
	C366.991089,392.509491 366.976318,392.961456 366.876831,393.744263 
	C364.544800,399.926605 363.477173,400.496124 357.300720,398.229767 
	C359.847687,396.606476 361.867340,395.319305 364.242279,393.805695 
	C361.487823,392.594513 358.853729,391.436279 356.044495,389.957794 
z"/>
<path fill="#0C4089" opacity="1.000000" stroke="none" 
	d="
M298.765686,152.742523 
	C296.882324,151.753357 293.998138,150.935913 292.996185,149.094406 
	C289.615082,142.879990 286.902283,136.301910 283.969666,129.424622 
	C284.005402,128.986374 284.153809,128.859497 284.351624,128.926239 
	C284.549408,128.992996 284.952057,129.103653 284.952057,129.103653 
	C287.979126,135.389465 290.863098,141.750961 294.122375,147.913971 
	C295.074738,149.714798 297.096039,150.950348 298.765686,152.742523 
z"/>
<path fill="#191627" opacity="1.000000" stroke="none" 
	d="
M367.694275,414.293243 
	C369.748535,414.675812 371.569855,415.099670 373.674011,415.731445 
	C373.952911,416.118378 373.949005,416.297394 373.475830,416.732269 
	C366.688904,417.320770 360.371246,417.653381 354.053589,417.986023 
	C353.208221,417.690918 352.362854,417.395844 351.346008,416.658936 
	C352.769958,415.741699 354.365387,415.266296 355.960846,414.790924 
	C356.420990,414.806366 356.881134,414.821777 358.068176,414.786316 
	C361.537811,414.542175 364.280548,414.348907 367.023315,414.155640 
	C367.023315,414.155670 367.461334,414.334564 367.694275,414.293243 
z"/>
<path fill="#191627" opacity="1.000000" stroke="none" 
	d="
M277.236145,400.940369 
	C271.894012,400.483734 266.915436,400.021973 261.588501,399.414551 
	C267.868317,398.849335 274.496490,398.429749 281.545715,398.068420 
	C280.511047,399.062897 279.055359,399.999084 277.236145,400.940369 
z"/>
<path fill="#0C4089" opacity="1.000000" stroke="none" 
	d="
M289.730530,203.785324 
	C284.703003,205.009796 279.350708,206.013046 273.571808,207.028732 
	C272.815002,206.232147 272.484833,205.423141 272.123291,204.282623 
	C275.951660,203.828690 279.810974,203.689133 283.671295,203.591171 
	C285.581787,203.542679 287.494202,203.570694 289.730530,203.785324 
z"/>
<path fill="#0C4089" opacity="1.000000" stroke="none" 
	d="
M334.209839,348.377380 
	C337.370819,351.932587 340.497040,355.884399 343.623260,359.836212 
	C343.166229,360.243835 342.709167,360.651459 342.252136,361.059082 
	C339.999725,358.654083 337.747284,356.249084 335.247192,353.915771 
	C334.724731,352.249695 334.449921,350.511841 334.209839,348.377380 
z"/>
<path fill="#060A18" opacity="1.000000" stroke="none" 
	d="
M275.686493,104.212708 
	C281.695831,103.103416 287.705170,101.994118 293.714508,100.884819 
	C293.770355,101.252937 293.826202,101.621056 293.882080,101.989174 
	C288.440704,103.500778 282.999359,105.012383 277.057648,106.731384 
	C276.557312,106.938797 276.103424,106.882698 276.103424,106.882698 
	C276.103424,106.882698 276.002228,106.965553 276.063965,106.592468 
	C275.979279,105.550491 275.832886,104.881599 275.686493,104.212708 
z"/>
<path fill="#DF9980" opacity="1.000000" stroke="none" 
	d="
M342.200317,400.306671 
	C344.527649,401.461975 347.039062,402.719147 349.008698,404.556976 
	C349.500610,405.015991 348.246704,407.346039 347.468750,408.910278 
	C346.306915,407.654480 345.449860,406.317352 344.642151,404.951080 
	C343.798035,403.523102 343.001404,402.067047 342.200317,400.306671 
z"/>
<path fill="#0C4089" opacity="1.000000" stroke="none" 
	d="
M311.518005,163.765457 
	C308.087280,161.084061 304.607147,158.087006 301.022797,154.797974 
	C304.435242,157.487274 307.951935,160.468536 311.518005,163.765457 
z"/>
<path fill="#060A18" opacity="1.000000" stroke="none" 
	d="
M354.401184,418.060120 
	C360.371246,417.653381 366.688904,417.320770 373.466125,417.000641 
	C367.533356,417.386841 361.141083,417.760529 354.401184,418.060120 
z"/>
<path fill="#191627" opacity="1.000000" stroke="none" 
	d="
M140.141602,393.011505 
	C142.641113,393.011169 144.713379,393.011169 146.785645,393.011169 
	C146.787048,393.460541 146.788452,393.909912 146.789856,394.359283 
	C142.938019,394.359283 139.086182,394.359283 135.234329,394.359283 
	C135.211472,393.992462 135.188599,393.625641 135.165741,393.258789 
	C136.681946,393.176483 138.198151,393.094177 140.141602,393.011505 
z"/>
<path fill="#0C4089" opacity="1.000000" stroke="none" 
	d="
M275.346466,104.251541 
	C275.832886,104.881599 275.979279,105.550491 276.121521,106.561852 
	C271.976868,106.461937 272.013092,109.514420 271.494202,112.560074 
	C270.756927,110.694939 270.180695,108.506836 269.517883,105.989952 
	C271.648407,105.330215 273.327423,104.810303 275.346466,104.251541 
z"/>
<path fill="#0C4089" opacity="1.000000" stroke="none" 
	d="
M318.111328,168.970856 
	C316.778381,171.648468 315.174683,174.154602 313.276611,176.816071 
	C313.678558,173.974594 314.374878,170.977798 315.000702,167.671539 
	C315.900330,167.841202 316.870483,168.320297 318.111328,168.970856 
z"/>
<path fill="#DF9980" opacity="1.000000" stroke="none" 
	d="
M355.639587,414.613922 
	C354.365387,415.266296 352.769958,415.741699 351.024719,416.558472 
	C349.916565,415.838715 348.958160,414.777557 347.964600,413.395996 
	C350.392395,413.529419 352.855347,413.983185 355.639587,414.613922 
z"/>
<path fill="#191627" opacity="1.000000" stroke="none" 
	d="
M244.000000,87.999809 
	C242.042007,87.497688 240.084015,86.995575 238.126022,86.493454 
	C238.283005,85.969963 238.439987,85.446472 238.596970,84.922989 
	C240.336395,85.728966 242.075806,86.534950 243.907623,87.670464 
	C244.000000,88.000000 244.000000,87.999809 244.000000,87.999809 
z"/>
<path fill="#191627" opacity="1.000000" stroke="none" 
	d="
M253.878662,95.422180 
	C253.344696,94.952911 253.062805,94.585106 252.780899,94.217300 
	C254.238113,94.484612 255.695343,94.751923 257.152557,95.019226 
	C257.100616,95.336670 257.048676,95.654106 256.996704,95.971542 
	C256.041382,95.822243 255.086044,95.672943 253.878662,95.422180 
z"/>
<path fill="#DF9980" opacity="1.000000" stroke="none" 
	d="
M229.963013,397.659119 
	C229.952438,398.090851 229.539902,397.983795 229.333069,397.932861 
	C229.156204,396.253326 229.186172,394.624695 229.590118,392.951477 
	C229.967255,394.347076 229.970413,395.787231 229.963013,397.659119 
z"/>
<path fill="#0C4089" opacity="1.000000" stroke="none" 
	d="
M276.066467,107.291794 
	C276.103424,106.882698 276.557312,106.938797 276.783630,106.971771 
	C277.138763,108.677277 277.267578,110.349800 277.375061,112.442612 
	C276.912384,111.142220 276.470978,109.421547 276.066467,107.291794 
z"/>
<path fill="#0C4089" opacity="1.000000" stroke="none" 
	d="
M283.226166,126.643311 
	C282.494751,125.565872 281.759521,124.113274 281.036957,122.297211 
	C281.049622,121.933762 281.446259,121.997894 281.684235,122.322678 
	C282.219971,123.118202 282.517731,123.588951 282.815491,124.059700 
	C282.951111,124.795853 283.086731,125.532005 283.226166,126.643311 
z"/>
<path fill="#060A18" opacity="1.000000" stroke="none" 
	d="
M282.990356,123.868179 
	C282.517731,123.588951 282.219971,123.118202 281.880127,122.367165 
	C282.280457,122.616798 282.722839,123.146729 282.990356,123.868179 
z"/>
<path fill="#191627" opacity="1.000000" stroke="none" 
	d="
M244.000000,88.000153 
	C244.755188,88.122421 245.510361,88.244537 246.265549,88.366653 
	C246.203995,88.608406 246.142426,88.850166 246.080856,89.091927 
	C245.499313,88.858444 244.917755,88.624962 244.168106,88.195648 
	C244.000000,87.999809 244.000000,88.000000 244.000000,88.000153 
z"/>
<path fill="#0C4089" opacity="1.000000" stroke="none" 
	d="
M266.564392,108.643211 
	C266.595764,108.637405 266.532990,108.649025 266.564392,108.643211 
z"/>
<path fill="#DF9980" opacity="1.000000" stroke="none" 
	d="
M232.645386,391.055664 
	C232.249924,391.409271 231.506104,391.688629 230.458160,391.986633 
	C230.868378,391.664001 231.582703,391.322754 232.645386,391.055664 
z"/>
<path fill="#191627" opacity="1.000000" stroke="none" 
	d="
M340.927734,389.331787 
	C341.116272,389.552124 341.289124,390.051514 341.555420,390.798706 
	C341.403290,390.567932 341.157684,390.089417 340.927734,389.331787 
z"/>
<path fill="#0C4089" opacity="1.000000" stroke="none" 
	d="
M279.805145,119.069817 
	C279.624908,118.739632 279.444702,118.409447 279.234161,117.793610 
	C279.359833,117.576653 279.515839,117.645363 279.813690,118.120827 
	C279.905396,118.708328 279.855286,118.889069 279.805145,119.069817 
z"/>
<path fill="#0C4089" opacity="1.000000" stroke="none" 
	d="
M283.930450,129.048889 
	C283.684509,128.737686 283.513489,128.363937 283.311584,127.679047 
	C283.459015,127.455368 283.637390,127.542839 284.006104,128.019623 
	C284.196381,128.408920 284.153809,128.859497 284.153809,128.859497 
	C284.153809,128.859497 284.005402,128.986374 283.930450,129.048889 
z"/>
<path fill="#0C4089" opacity="1.000000" stroke="none" 
	d="
M279.022644,116.743256 
	C278.726746,116.855667 278.589020,116.611740 278.700745,116.140884 
	C278.852325,116.165359 278.929230,116.323013 279.022644,116.743256 
z"/>
<path fill="#DF9980" opacity="1.000000" stroke="none" 
	d="
M347.141602,412.272736 
	C347.400238,412.211182 347.590179,412.435028 347.848419,412.883514 
	C347.668182,412.897064 347.386902,412.713684 347.141602,412.272736 
z"/>
<path fill="#DF9980" opacity="1.000000" stroke="none" 
	d="
M370.022217,401.703979 
	C369.848846,401.739288 369.593109,401.515869 369.194824,401.081421 
	C369.348114,401.062042 369.643951,401.253632 370.022217,401.703979 
z"/>
<path fill="#060A18" opacity="1.000000" stroke="none" 
	d="
M278.771057,114.191544 
	C278.651428,114.407730 278.492249,114.346451 278.186096,113.883804 
	C278.091309,113.302246 278.143494,113.122055 278.195648,112.941856 
	C278.374237,113.265930 278.552856,113.589996 278.771057,114.191544 
z"/>
<path fill="#0C4089" opacity="1.000000" stroke="none" 
	d="
M277.977661,112.845001 
	C278.143494,113.122055 278.091309,113.302246 277.965546,113.754059 
	C277.707825,113.738548 277.523682,113.451424 277.316895,112.903915 
	C277.294220,112.643539 277.759674,112.748138 277.977661,112.845001 
z"/>
<path fill="#060A18" opacity="1.000000" stroke="none" 
	d="
M280.037506,119.218491 
	C279.855286,118.889069 279.905396,118.708328 280.030457,118.256470 
	C280.298828,118.322639 280.492310,118.659920 280.731537,119.290497 
	C280.608154,119.511581 280.439026,119.439377 280.037506,119.218491 
z"/>
<path fill="#0C4089" opacity="1.000000" stroke="none" 
	d="
M281.046692,121.714630 
	C280.746735,121.838081 280.605194,121.604210 280.711121,121.138290 
	C280.866333,121.157387 280.948486,121.307747 281.046692,121.714630 
z"/>
<path fill="#DF9980" opacity="1.000000" stroke="none" 
	d="
M368.892456,399.726440 
	C368.627991,399.792786 368.431610,399.566498 368.158386,399.115112 
	C368.343994,399.097870 368.636993,399.279114 368.892456,399.726440 
z"/>
<path fill="#DF9980" opacity="1.000000" stroke="none" 
	d="
M368.009033,398.715820 
	C367.806946,398.805725 367.558411,398.607422 367.203094,398.176331 
	C367.352570,398.145630 367.641327,398.307007 368.009033,398.715820 
z"/>
<path fill="#060A18" opacity="1.000000" stroke="none" 
	d="
M284.351624,128.926239 
	C284.153809,128.859497 284.196381,128.408920 284.251038,128.189407 
	C284.521118,128.175278 284.691376,128.413010 284.884247,128.893372 
	C284.952057,129.103653 284.549408,128.992996 284.351624,128.926239 
z"/>
<path fill="#0C4089" opacity="1.000000" stroke="none" 
	d="
M313.120087,165.606812 
	C312.927094,165.646683 312.639343,165.416687 312.233490,164.932877 
	C312.418732,164.898361 312.722015,165.117661 313.120087,165.606812 
z"/>
<path fill="#0C4089" opacity="1.000000" stroke="none" 
	d="
M314.206177,166.618134 
	C314.026886,166.671814 313.713806,166.474304 313.257874,166.033203 
	C313.434174,165.982040 313.753296,166.174500 314.206177,166.618134 
z"/>
<path fill="#191627" opacity="1.000000" stroke="none" 
	d="
M250.474899,92.485733 
	C250.506683,92.470711 250.443115,92.500755 250.474899,92.485733 
z"/>
<path fill="#191627" opacity="1.000000" stroke="none" 
	d="
M248.519379,91.510216 
	C248.492599,91.521698 248.546173,91.498734 248.519379,91.510216 
z"/>
<path fill="#060A18" opacity="1.000000" stroke="none" 
	d="
M258.229431,272.582153 
	C256.941559,271.478851 255.872696,270.105591 254.766632,268.363953 
	C257.148926,264.282593 259.568390,260.569641 262.416748,256.611938 
	C263.021973,256.263672 263.073395,256.115845 262.999878,255.923737 
	C262.999878,255.923737 262.997498,255.994461 262.962006,255.995483 
	C265.174591,253.909988 267.678101,252.036224 269.624817,249.698715 
	C276.597198,241.326645 283.380951,232.797516 290.524323,224.173279 
	C291.217804,226.124146 291.623016,228.229507 292.015137,230.575607 
	C282.192688,242.547241 272.353058,254.253082 262.604309,266.034119 
	C261.013428,267.956665 259.823669,270.211151 258.229431,272.582153 
z"/>
<path fill="#0C4089" opacity="1.000000" stroke="none" 
	d="
M334.976685,204.961838 
	C338.916443,207.288223 342.532623,209.451538 346.263306,211.683334 
	C341.592682,212.290497 335.247803,209.198288 328.875610,202.639694 
	C330.801422,203.359375 332.727264,204.079056 334.976685,204.961838 
z"/>
<path fill="#0C4089" opacity="1.000000" stroke="none" 
	d="
M363.133545,378.418610 
	C363.202759,379.197144 363.057129,379.738098 362.911499,380.279022 
	C357.773529,378.084747 352.635620,375.890442 347.497711,373.696167 
	C347.749237,373.066315 348.000732,372.436493 348.252258,371.806671 
	C353.141052,373.931458 358.029877,376.056244 363.133545,378.418610 
z"/>
<path fill="#0C4089" opacity="1.000000" stroke="none" 
	d="
M302.106873,251.893616 
	C303.748199,253.792542 305.389496,255.691452 307.030823,257.590363 
	C306.500000,258.007446 305.969208,258.424500 305.438385,258.841553 
	C304.279266,256.821167 303.120148,254.800812 301.984924,252.380539 
	C302.008820,251.980621 302.106873,251.893616 302.106873,251.893616 
z"/>
<path fill="#0C4089" opacity="1.000000" stroke="none" 
	d="
M308.824402,260.583496 
	C309.707703,261.669189 310.327057,262.626953 310.946381,263.584717 
	C310.357574,263.767395 309.768799,263.950043 309.179993,264.132721 
	C308.973450,262.906982 308.766937,261.681274 308.824402,260.583496 
z"/>
<path fill="#0C4089" opacity="1.000000" stroke="none" 
	d="
M301.957581,252.021515 
	C301.749390,251.798203 301.592407,251.533981 301.435425,251.269760 
	C301.629120,251.371811 301.822815,251.473877 302.061707,251.734772 
	C302.106873,251.893616 302.008820,251.980621 301.957581,252.021515 
z"/>
<path fill="#0C4089" opacity="1.000000" stroke="none" 
	d="
M344.524902,362.480103 
	C344.541534,362.514648 344.508270,362.445557 344.524902,362.480103 
z"/>
<path fill="#191627" opacity="1.000000" stroke="none" 
	d="
M302.267761,225.418213 
	C302.176788,225.390350 302.437805,225.176117 302.527039,225.181915 
	C302.616272,225.187729 302.358734,225.446091 302.267761,225.418213 
z"/>
<path fill="#0C4089" opacity="1.000000" stroke="none" 
	d="
M290.783325,216.701630 
	C286.279510,217.127197 281.909210,217.127197 277.538879,217.127197 
	C277.531921,216.396652 277.524963,215.666122 277.518005,214.935577 
	C279.681335,214.935577 281.852600,214.817230 284.006195,214.961914 
	C287.691986,215.209549 290.155243,214.368454 290.189636,209.937424 
	C290.203156,208.200699 291.246643,206.471970 291.881104,204.365540 
	C292.506989,203.727020 293.072876,203.462555 293.953552,203.200211 
	C293.151154,207.560226 292.033997,211.918152 290.783325,216.701630 
z"/>
<path fill="#0C4089" opacity="1.000000" stroke="none" 
	d="
M304.598328,187.056976 
	C303.822388,188.565704 302.708252,190.149872 301.304810,191.884735 
	C302.097046,190.401093 303.178589,188.766754 304.598328,187.056976 
z"/>
<path fill="#0C4089" opacity="1.000000" stroke="none" 
	d="
M308.643463,182.076691 
	C307.835510,183.546722 306.689423,185.087830 305.258484,186.779037 
	C306.084229,185.335327 307.194763,183.741547 308.643463,182.076691 
z"/>
<path fill="#0C4089" opacity="1.000000" stroke="none" 
	d="
M298.008698,196.263565 
	C297.480194,197.779465 296.605316,199.420227 295.453857,201.269775 
	C296.005615,199.781845 296.833984,198.085129 298.008698,196.263565 
z"/>
<path fill="#0C4089" opacity="1.000000" stroke="none" 
	d="
M312.642700,177.059067 
	C312.154510,178.168106 311.336365,179.351288 310.242462,180.672073 
	C310.748749,179.584198 311.530731,178.358704 312.642700,177.059067 
z"/>
<path fill="#0C4089" opacity="1.000000" stroke="none" 
	d="
M300.708954,192.107254 
	C300.534271,192.908386 300.036163,193.805923 299.279388,194.880646 
	C299.475677,194.106445 299.930603,193.155060 300.708954,192.107254 
z"/>
<path fill="#0C4089" opacity="1.000000" stroke="none" 
	d="
M309.651184,181.119263 
	C309.819458,181.314590 309.688660,181.582336 309.215820,181.878693 
	C309.118683,181.702225 309.278137,181.463684 309.651184,181.119263 
z"/>
<path fill="#0C4089" opacity="1.000000" stroke="none" 
	d="
M298.842590,195.172119 
	C298.925293,195.354416 298.799561,195.711533 298.407410,196.190048 
	C298.305359,195.989944 298.469727,195.668427 298.842590,195.172119 
z"/>
<path fill="#0B4BA4" opacity="1.000000" stroke="none" 
	d="
M262.850708,255.872589 
	C263.073395,256.115845 263.021973,256.263672 262.726898,256.344971 
	C262.608154,256.322723 262.487244,256.041687 262.487244,256.041687 
	C262.487244,256.041687 262.701569,255.821442 262.850708,255.872589 
z"/>
<path fill="#544037" opacity="1.000000" stroke="none" 
	d="
M272.600586,393.858154 
	C273.466553,394.095306 273.934082,394.226471 275.425385,394.644836 
	C268.368408,395.037354 262.309143,395.374359 256.170349,395.386292 
	C261.461273,394.624878 266.831696,394.188538 272.600586,393.858154 
z"/>
<path fill="#DF9980" opacity="1.000000" stroke="none" 
	d="
M234.812256,400.947083 
	C234.381485,400.959595 233.724426,400.749390 232.948273,400.308655 
	C233.414764,400.293518 234.000366,400.508942 234.812256,400.947083 
z"/>
<path fill="#DF9980" opacity="1.000000" stroke="none" 
	d="
M246.759399,402.768555 
	C246.236679,403.013123 245.488022,403.084320 244.365265,403.103699 
	C244.838608,402.899658 245.686035,402.747406 246.759399,402.768555 
z"/>
<path fill="#DF9980" opacity="1.000000" stroke="none" 
	d="
M265.249084,384.887787 
	C265.556854,384.692780 265.984894,384.699188 266.699402,384.859070 
	C266.447021,385.038116 265.908173,385.063690 265.249084,384.887787 
z"/>
<path fill="#DF9980" opacity="1.000000" stroke="none" 
	d="
M237.769150,401.896240 
	C237.359207,401.966980 236.683380,401.819183 235.768250,401.410278 
	C236.187057,401.325378 236.845154,401.501556 237.769150,401.896240 
z"/>
<path fill="#DF9980" opacity="1.000000" stroke="none" 
	d="
M240.705933,402.767822 
	C240.311005,402.838989 239.631683,402.719513 238.686218,402.367676 
	C239.087250,402.282623 239.754395,402.429871 240.705933,402.767822 
z"/>
<path fill="#DF9980" opacity="1.000000" stroke="none" 
	d="
M366.712982,413.916382 
	C364.280548,414.348907 361.537811,414.542175 358.396484,414.669006 
	C360.799469,414.294098 363.601074,413.985596 366.712982,413.916382 
z"/>
<path fill="#E69C82" opacity="1.000000" stroke="none" 
	d="
M252.980164,401.068878 
	C253.036942,401.327148 252.880722,401.498383 252.765747,401.496521 
	C252.421555,400.965973 252.192322,400.437317 251.963104,399.908630 
	C252.283203,400.209290 252.603287,400.509949 252.980164,401.068878 
z"/>
</svg>